<svg width="80" height="83" viewBox="0 0 80 83" fill="none" xmlns="http://www.w3.org/2000/svg">
<path d="M66.36 46.34H75.24V63.38C72.96 65.1 70.32 66.42 67.32 67.34C64.32 68.26 61.3 68.72 58.26 68.72C53.9 68.72 49.98 67.8 46.5 65.96C43.02 64.08 40.28 61.5 38.28 58.22C36.32 54.9 35.34 51.16 35.34 47C35.34 42.84 36.32 39.12 38.28 35.84C40.28 32.52 43.04 29.94 46.56 28.1C50.08 26.22 54.04 25.28 58.44 25.28C62.12 25.28 65.46 25.9 68.46 27.14C71.46 28.38 73.98 30.18 76.02 32.54L69.78 38.3C66.78 35.14 63.16 33.56 58.92 33.56C56.24 33.56 53.86 34.12 51.78 35.24C49.7 36.36 48.08 37.94 46.92 39.98C45.76 42.02 45.18 44.36 45.18 47C45.18 49.6 45.76 51.92 46.92 53.96C48.08 56 49.68 57.6 51.72 58.76C53.8 59.88 56.16 60.44 58.8 60.44C61.6 60.44 64.12 59.84 66.36 58.64V46.34Z" fill="#0094FF"/>
<path d="M33.88 48.28H12.88L8.74 58H0.7L19.6 16H27.28L46.24 58H38.08L33.88 48.28ZM31.3 42.16L23.38 23.8L15.52 42.16H31.3Z" fill="#0094FF"/>
</svg>
